<svg version="1.1" id="Layer_1" xmlns="http://www.w3.org/2000/svg" xmlns:xlink="http://www.w3.org/1999/xlink" x="0px" y="0px"
	 width="100%" viewBox="0 0 312 262" enable-background="new 0 0 312 262" xml:space="preserve">
<path fill="#FEFDFE" opacity="1.000000" stroke="none" 
	d="
M190.000000,263.000000 
	C126.666687,263.000000 63.833370,263.000000 1.000042,263.000000 
	C1.000028,175.666718 1.000028,88.333420 1.000014,1.000101 
	C104.999931,1.000067 208.999863,1.000067 312.999817,1.000034 
	C312.999878,88.333229 312.999878,175.666458 312.999939,262.999847 
	C272.166656,263.000000 231.333328,263.000000 190.000000,263.000000 
M15.380203,15.994905 
	C15.229445,16.322985 15.078688,16.651064 14.449814,17.188747 
	C14.253804,17.658293 14.057795,18.127838 13.363107,18.908264 
	C13.241252,19.271978 13.119396,19.635693 13.000076,20.000000 
	C13.000076,20.000000 12.998630,19.997004 12.451073,20.478216 
	C11.569963,24.150974 9.928720,27.822025 9.920463,31.496746 
	C9.768921,98.929443 9.804161,166.362579 9.860324,233.795593 
	C9.861917,235.709030 10.527577,237.621918 10.811172,240.238007 
	C14.863358,251.733322 22.787319,258.426941 35.944836,259.965454 
	C83.790802,259.982208 131.636780,260.001160 179.482742,260.002441 
	C180.635147,260.002472 181.787552,259.805176 183.697266,259.781677 
	C199.810974,256.000854 207.892792,245.767761 207.896301,229.083298 
	C207.904694,189.085892 207.898438,149.088486 207.897873,109.091072 
	C207.897522,84.092690 207.975021,59.093975 207.868286,34.096050 
	C207.798386,17.725857 195.671097,5.063714 179.874939,5.030242 
	C132.378250,4.929600 84.881203,4.967722 37.384354,5.014469 
	C29.141100,5.022582 22.162800,8.049067 16.338346,14.857375 
	C16.153671,15.214286 15.968995,15.571197 15.927256,15.928112 
	C15.927256,15.928112 15.896232,15.788582 15.380203,15.994905 
M254.000000,48.000153 
	C254.000000,48.000153 254.010010,48.011318 253.482803,48.492432 
	C252.444183,53.347321 251.405579,58.202209 250.223145,63.976051 
	C250.212402,92.532967 250.178833,121.089897 250.202881,149.646774 
	C250.211685,160.098831 250.357071,170.550797 250.249222,181.844421 
	C250.283203,183.566299 250.317200,185.288177 250.147247,187.584000 
	C250.442551,188.004700 250.737839,188.425400 251.945877,189.053879 
	C268.982330,189.062973 286.018768,189.076050 303.055237,189.075974 
	C305.110657,189.075958 307.760406,189.733398 306.957458,185.085785 
	C306.963837,177.268738 306.975098,169.451706 306.975769,161.634659 
	C306.978668,128.370438 307.044464,95.106018 306.945160,61.842094 
	C306.907898,49.355831 299.456970,38.937801 288.246063,35.013630 
	C276.459076,30.887800 264.935791,34.106934 256.313934,44.105053 
	C255.546310,45.406197 254.778687,46.707340 254.000000,48.000153 
M265.327637,240.151917 
	C269.674896,246.631821 274.022186,253.111710 278.651917,260.012634 
	C288.004669,245.959625 297.190125,232.157959 306.566528,218.069397 
	C287.906006,218.069397 270.198151,218.069397 251.187759,218.069397 
	C256.063538,225.678696 260.504364,232.609177 265.327637,240.151917 
z"/>
<path fill="#4D2D85" opacity="1.000000" stroke="none" 
	d="
M13.861784,18.597383 
	C14.057795,18.127838 14.253804,17.658293 14.931189,16.961920 
	C15.573786,16.419588 15.735008,16.104084 15.896231,15.788582 
	C15.896232,15.788582 15.927256,15.928112 16.143122,15.797961 
	C16.529964,15.296585 16.700941,14.925359 16.871918,14.554132 
	C22.162800,8.049067 29.141100,5.022582 37.384354,5.014469 
	C84.881203,4.967722 132.378250,4.929600 179.874939,5.030242 
	C195.671097,5.063714 207.798386,17.725857 207.868286,34.096050 
	C207.975021,59.093975 207.897522,84.092690 207.897873,109.091072 
	C207.898438,149.088486 207.904694,189.085892 207.896301,229.083298 
	C207.892792,245.767761 199.810974,256.000854 182.981842,259.511993 
	C181.609299,259.160126 180.952194,259.006195 180.295074,259.006012 
	C133.140411,258.994141 85.985748,258.988495 38.831116,259.026215 
	C37.563568,259.027222 36.296402,259.508453 35.029060,259.765778 
	C22.787319,258.426941 14.863358,251.733322 10.875260,239.375702 
	C12.347874,165.681412 8.390814,92.798851 12.998630,19.997004 
	C12.998630,19.997004 13.000076,20.000000 13.236023,19.833418 
	C13.601908,19.310352 13.731846,18.953867 13.861784,18.597383 
M123.643127,201.369308 
	C123.958481,192.960403 124.295601,184.552048 124.504738,176.140488 
	C124.512596,175.824341 123.278145,175.477310 121.735069,175.072678 
	C98.542999,175.072678 75.350929,175.072678 52.343636,175.072678 
	C52.343636,184.887680 52.343636,193.951981 52.343636,203.212784 
	C75.159767,203.212784 97.603500,203.228882 120.046974,203.160309 
	C121.058655,203.157211 122.068001,202.387390 123.643127,201.369308 
M55.060047,61.755371 
	C54.037010,62.449642 52.141159,63.122993 52.123943,63.841377 
	C51.917976,72.434738 51.990936,81.034775 51.990936,89.679626 
	C90.016541,89.679626 127.402374,89.679626 165.006485,89.679626 
	C165.006485,80.240013 165.006485,71.107216 164.755829,61.380325 
	C163.481659,61.456261 162.207504,61.532196 160.015991,61.752899 
	C125.698387,61.699226 91.380791,61.645557 57.018353,61.179024 
	C56.843468,60.988190 56.668587,60.797356 56.493706,60.606522 
	C56.307793,60.936554 56.121880,61.266582 55.060047,61.755371 
M52.951157,146.750763 
	C53.310848,146.847916 53.670536,146.945068 54.621426,147.622650 
	C56.433609,147.749268 58.245693,147.984360 60.057995,147.986099 
	C84.539482,148.009476 109.021416,147.918076 133.502319,148.040436 
	C143.120331,148.088516 152.735214,148.652313 162.354294,148.798050 
	C163.190979,148.810715 164.048462,147.450027 165.025085,145.831146 
	C164.982422,136.636215 164.939743,127.441292 164.855057,117.475784 
	C162.126602,117.316681 159.398285,117.021828 156.669678,117.019142 
	C124.005280,116.987000 91.340813,116.981216 58.676502,117.041870 
	C56.786781,117.045380 54.898235,117.680901 52.627369,118.337029 
	C52.381771,118.557274 52.138382,118.779930 51.177071,119.155998 
	C50.843609,119.500381 50.220737,119.843384 50.219086,120.189346 
	C50.179756,128.439667 50.158974,136.691208 50.315983,144.939087 
	C50.328209,145.581512 51.669998,146.198639 52.951157,146.750763 
M166.410034,146.483109 
	C166.410034,146.483109 166.523804,146.414673 166.410034,146.483109 
z"/>
<path fill="#4D2D85" opacity="1.000000" stroke="none" 
	d="
M256.885742,43.774414 
	C264.935791,34.106934 276.459076,30.887800 288.246063,35.013630 
	C299.456970,38.937801 306.907898,49.355831 306.945160,61.842094 
	C307.044464,95.106018 306.978668,128.370438 306.975769,161.634659 
	C306.975098,169.451706 306.963837,177.268738 306.564728,185.748886 
	C304.327423,186.941299 302.486664,187.913895 300.637665,187.929794 
	C285.981934,188.055695 271.324554,188.009338 256.667786,187.983841 
	C255.237656,187.981354 253.807877,187.762589 253.048294,187.699707 
	C252.004272,185.018982 251.222198,183.010895 250.440140,181.002792 
	C250.357071,170.550797 250.211685,160.098831 250.202881,149.646774 
	C250.178833,121.089897 250.212402,92.532967 250.640991,63.384727 
	C252.042572,57.866039 253.026291,52.938679 254.010010,48.011318 
	C254.010010,48.011318 254.000000,48.000153 254.367035,47.946426 
	C255.451294,46.519939 256.168518,45.147175 256.885742,43.774414 
z"/>
<path fill="#4E2F84" opacity="1.000000" stroke="none" 
	d="
M265.136414,239.845795 
	C260.504364,232.609177 256.063538,225.678696 251.187759,218.069397 
	C270.198151,218.069397 287.906006,218.069397 306.566528,218.069397 
	C297.190125,232.157959 288.004669,245.959625 278.651917,260.012634 
	C274.022186,253.111710 269.674896,246.631821 265.136414,239.845795 
z"/>
<path fill="#483272" opacity="1.000000" stroke="none" 
	d="
M12.724852,20.237610 
	C8.390814,92.798851 12.347874,165.681412 10.911471,239.024231 
	C10.527577,237.621918 9.861917,235.709030 9.860324,233.795593 
	C9.804161,166.362579 9.768921,98.929443 9.920463,31.496746 
	C9.928720,27.822025 11.569963,24.150974 12.724852,20.237610 
z"/>
<path fill="#4E386F" opacity="1.000000" stroke="none" 
	d="
M35.486946,259.865601 
	C36.296402,259.508453 37.563568,259.027222 38.831116,259.026215 
	C85.985748,258.988495 133.140411,258.994141 180.295074,259.006012 
	C180.952194,259.006195 181.609299,259.160126 182.603180,259.471130 
	C181.787552,259.805176 180.635147,260.002472 179.482742,260.002441 
	C131.636780,260.001160 83.790802,259.982208 35.486946,259.865601 
z"/>
<path fill="#473271" opacity="1.000000" stroke="none" 
	d="
M250.344666,181.423615 
	C251.222198,183.010895 252.004272,185.018982 253.048294,187.699707 
	C253.807877,187.762589 255.237656,187.981354 256.667786,187.983841 
	C271.324554,188.009338 285.981934,188.055695 300.637665,187.929794 
	C302.486664,187.913895 304.327423,186.941299 306.493042,186.213562 
	C307.760406,189.733398 305.110657,189.075958 303.055237,189.075974 
	C286.018768,189.076050 268.982330,189.062973 251.485626,188.691864 
	C250.800644,187.889908 250.575912,187.449982 250.351196,187.010056 
	C250.317200,185.288177 250.283203,183.566299 250.344666,181.423615 
z"/>
<path fill="#644E8A" opacity="1.000000" stroke="none" 
	d="
M253.746399,48.251877 
	C253.026291,52.938679 252.042572,57.866039 250.712906,62.925251 
	C251.405579,58.202209 252.444183,53.347321 253.746399,48.251877 
z"/>
<path fill="#644E8A" opacity="1.000000" stroke="none" 
	d="
M256.599854,43.939735 
	C256.168518,45.147175 255.451294,46.519939 254.372559,47.950592 
	C254.778687,46.707340 255.546310,45.406197 256.599854,43.939735 
z"/>
<path fill="#644E8A" opacity="1.000000" stroke="none" 
	d="
M250.249222,187.297028 
	C250.575912,187.449982 250.800644,187.889908 251.029266,188.587967 
	C250.737839,188.425400 250.442551,188.004700 250.249222,187.297028 
z"/>
<path fill="#483272" opacity="1.000000" stroke="none" 
	d="
M16.605133,14.705753 
	C16.700941,14.925359 16.529964,15.296585 16.071653,15.797958 
	C15.968995,15.571197 16.153671,15.214286 16.605133,14.705753 
z"/>
<path fill="#483272" opacity="1.000000" stroke="none" 
	d="
M15.638217,15.891744 
	C15.735008,16.104084 15.573786,16.419588 15.170246,16.857117 
	C15.078688,16.651064 15.229445,16.322985 15.638217,15.891744 
z"/>
<path fill="#483272" opacity="1.000000" stroke="none" 
	d="
M13.612446,18.752823 
	C13.731846,18.953867 13.601908,19.310352 13.234755,19.833122 
	C13.119396,19.635693 13.241252,19.271978 13.612446,18.752823 
z"/>
<path fill="#FBFAFD" opacity="1.000000" stroke="none" 
	d="
M51.897194,119.005005 
	C52.138382,118.779930 52.381771,118.557274 53.279945,118.258904 
	C90.920708,118.202644 127.908890,118.224510 164.897079,118.246368 
	C164.939743,127.441292 164.982422,136.636215 164.500580,146.312775 
	C142.816299,146.802261 121.656448,146.784332 100.496727,146.826584 
	C85.007812,146.857498 69.519051,146.967484 54.030224,147.042236 
	C53.670536,146.945068 53.310848,146.847916 52.541084,146.349945 
	C52.053074,136.967743 51.975136,127.986374 51.897194,119.005005 
z"/>
<path fill="#FFFEFF" opacity="1.000000" stroke="none" 
	d="
M165.006485,61.974411 
	C165.006485,71.107216 165.006485,80.240013 165.006485,89.679626 
	C127.402374,89.679626 90.016541,89.679626 51.990936,89.679626 
	C51.990936,81.034775 51.917976,72.434738 52.123943,63.841377 
	C52.141159,63.122993 54.037010,62.449642 55.780220,61.762836 
	C56.687992,61.710827 56.875591,61.651356 57.063190,61.591888 
	C91.380791,61.645557 125.698387,61.699226 160.869644,61.795563 
	C162.817688,61.883617 163.912094,61.929012 165.006485,61.974411 
z"/>
<path fill="#FEFDFE" opacity="1.000000" stroke="none" 
	d="
M123.078430,201.974686 
	C122.068001,202.387390 121.058655,203.157211 120.046974,203.160309 
	C97.603500,203.228882 75.159767,203.212784 52.343636,203.212784 
	C52.343636,193.951981 52.343636,184.887680 52.343636,175.072678 
	C75.350929,175.072678 98.542999,175.072678 122.256203,175.561310 
	C122.877701,184.691513 122.978065,193.333099 123.078430,201.974686 
z"/>
<path fill="#473074" opacity="1.000000" stroke="none" 
	d="
M54.325825,147.332443 
	C69.519051,146.967484 85.007812,146.857498 100.496727,146.826584 
	C121.656448,146.784332 142.816299,146.802261 164.436188,146.760834 
	C164.048462,147.450027 163.190979,148.810715 162.354294,148.798050 
	C152.735214,148.652313 143.120331,148.088516 133.502319,148.040436 
	C109.021416,147.918076 84.539482,148.009476 60.057995,147.986099 
	C58.245693,147.984360 56.433609,147.749268 54.325825,147.332443 
z"/>
<path fill="#4A3472" opacity="1.000000" stroke="none" 
	d="
M164.876068,117.861076 
	C127.908890,118.224510 90.920708,118.202644 53.470829,118.101532 
	C54.898235,117.680901 56.786781,117.045380 58.676502,117.041870 
	C91.340813,116.981216 124.005280,116.987000 156.669678,117.019142 
	C159.398285,117.021828 162.126602,117.316681 164.876068,117.861076 
z"/>
<path fill="#4A3472" opacity="1.000000" stroke="none" 
	d="
M51.537132,119.080505 
	C51.975136,127.986374 52.053074,136.967743 52.262428,146.388306 
	C51.669998,146.198639 50.328209,145.581512 50.315983,144.939087 
	C50.158974,136.691208 50.179756,128.439667 50.219086,120.189346 
	C50.220737,119.843384 50.843609,119.500381 51.537132,119.080505 
z"/>
<path fill="#483176" opacity="1.000000" stroke="none" 
	d="
M123.360779,201.671997 
	C122.978065,193.333099 122.877701,184.691513 122.699982,175.597290 
	C123.278145,175.477310 124.512596,175.824341 124.504738,176.140488 
	C124.295601,184.552048 123.958481,192.960403 123.360779,201.671997 
z"/>
<path fill="#66508D" opacity="1.000000" stroke="none" 
	d="
M164.881165,61.677368 
	C163.912094,61.929012 162.817688,61.883617 161.328308,61.723175 
	C162.207504,61.532196 163.481659,61.456261 164.881165,61.677368 
z"/>
<path fill="#66508D" opacity="1.000000" stroke="none" 
	d="
M57.040771,61.385452 
	C56.875591,61.651356 56.687992,61.710827 56.218182,61.683456 
	C56.121880,61.266582 56.307793,60.936554 56.493706,60.606522 
	C56.668587,60.797356 56.843468,60.988190 57.040771,61.385452 
z"/>
<path fill="#473074" opacity="1.000000" stroke="none" 
	d="
M166.466919,146.448883 
	C166.523804,146.414673 166.410034,146.483109 166.466919,146.448883 
z"/>
</svg>